<?xml version="1.0" encoding="UTF-8" standalone="no"?>
<!-- Created with Inkscape (http://www.inkscape.org/) -->

<svg xmlns:dc="http://purl.org/dc/elements/1.1/" xmlns:cc="http://creativecommons.org/ns#" xmlns:rdf="http://www.w3.org/1999/02/22-rdf-syntax-ns#" xmlns:svg="http://www.w3.org/2000/svg" xmlns="http://www.w3.org/2000/svg" xmlns:xlink="http://www.w3.org/1999/xlink" xmlns:sodipodi="http://sodipodi.sourceforge.net/DTD/sodipodi-0.dtd" xmlns:inkscape="http://www.inkscape.org/namespaces/inkscape" sodipodi:docname="epicmode.svg" viewBox="0 0 150 150" height="160" width="160" inkscape:version="0.92.1 unknown" version="1.1" id="svg4222">
  <metadata id="metadata4228">
    <rdf:RDF>
      <cc:Work rdf:about="">
        <dc:format>image/svg+xml</dc:format>
        <dc:type rdf:resource="http://purl.org/dc/dcmitype/StillImage" />
        <dc:title></dc:title>
      </cc:Work>
    </rdf:RDF>
  </metadata>
  <defs id="defs4226">
    <linearGradient inkscape:collect="always" id="linearGradient4904">
      <stop style="stop-color:#bfbfbf;stop-opacity:1;" offset="0" id="stop4906" />
      <stop style="stop-color:#bfbfbf;stop-opacity:0;" offset="1" id="stop4908" />
    </linearGradient>
    <linearGradient inkscape:collect="always" id="linearGradient4881">
      <stop style="stop-color:#cfcfcf;stop-opacity:1;" offset="0" id="stop4883" />
      <stop style="stop-color:#cfcfcf;stop-opacity:0;" offset="1" id="stop4885" />
    </linearGradient>
    <linearGradient inkscape:collect="always" id="linearGradient4808">
      <stop style="stop-color:#d06d69;stop-opacity:1;" offset="0" id="stop4810" />
      <stop style="stop-color:#d06d69;stop-opacity:0;" offset="1" id="stop4812" />
    </linearGradient>
    <linearGradient inkscape:collect="always" xlink:href="#linearGradient4808" id="linearGradient4814" x1="45.65" y1="71.84" x2="111.2" y2="70.45" gradientUnits="userSpaceOnUse" gradientTransform="translate(60.22,-11.65)" />
    <linearGradient inkscape:collect="always" xlink:href="#linearGradient4881" id="linearGradient4887" x1="95.87" y1="4.284" x2="219.5" y2="3.79" gradientUnits="userSpaceOnUse" gradientTransform="matrix(0.9879,0,0,1.016,1.159,7.776)" />
    <linearGradient inkscape:collect="always" xlink:href="#linearGradient4904" id="linearGradient4910" x1="94.99" y1="101.1" x2="168.4" y2="101.1" gradientUnits="userSpaceOnUse" gradientTransform="translate(-56.68,16.08)" />
  </defs>
  <sodipodi:namedview fit-margin-bottom="0" fit-margin-right="0" fit-margin-left="0" fit-margin-top="0" inkscape:current-layer="svg4222" inkscape:cy="68.03" inkscape:cx="9.429" inkscape:zoom="2.065" showgrid="false" id="namedview4224" inkscape:window-height="480" inkscape:window-width="640" inkscape:pageshadow="2" inkscape:pageopacity="0" guidetolerance="10" gridtolerance="10" objecttolerance="10" borderopacity="1" bordercolor="#666666" pagecolor="#ffffff" showguides="false" inkscape:pagecheckerboard="false" inkscape:showpageshadow="false" showborder="false" />
  <g id="g4324" style="stroke-width:2;stroke-miterlimit:4;stroke-dasharray:none" transform="translate(-46.87,20.13)" />
  <g id="g4841" transform="translate(-56.6,16.25)" />
  <g id="g4173">
    <circle style="color:#000000;display:inline;overflow:visible;visibility:visible;opacity:1;fill:none;fill-opacity:1;fill-rule:nonzero;stroke:#707070;stroke-width:8;stroke-linecap:round;stroke-linejoin:miter;stroke-miterlimit:4;stroke-dasharray:none;stroke-dashoffset:0;stroke-opacity:1;marker:none;enable-background:accumulate" id="path4569-8-8" cx="75" cy="75" r="71" />
    <g transform="translate(3.495,4.76)" id="g4573">
      <g id="g4584">
        <g id="g4623">
          <path style="fill:#a1a1a1;fill-opacity:1;fill-rule:evenodd;stroke:none;stroke-width:1;stroke-linecap:butt;stroke-linejoin:miter;stroke-miterlimit:4;stroke-dasharray:none;stroke-opacity:1" d="M 44.68,36.17 L 34.47,26.94 C 33.24,23 33.9,19.36 36.45,15.25 c 15.58,-6.797 57.39,-6.685 70.15,0 c 2.5,4.11 3.2,7.75 1.9,11.69 L 97.67,37.49 c -20.18,7.9 -36.74,4.73 -52.99,-1.32 z" id="path4532" inkscape:connector-curvature="0" sodipodi:nodetypes="ccccccc" />
          <path sodipodi:nodetypes="cccccc" inkscape:connector-curvature="0" id="path4528" d="m 98.29,103.2 l 10.21,9.2 c 1.3,3.9 0.6,8.7 -1.9,12.9 c -11.89,9.3 -51.29,11.2 -70.19,-0.5 c -2.55,-4.2 -3.05,-8.9 -1.98,-12.4 l 10.21,-9.2" style="fill:#707070;fill-opacity:1;fill-rule:evenodd;stroke:none;stroke-width:1;stroke-linecap:butt;stroke-linejoin:miter;stroke-miterlimit:4;stroke-dasharray:none;stroke-opacity:1" />
        </g>
      </g>
    </g>
    <g transform="translate(-56.79,16.25)" id="g4848">
      <g id="g4853">
        <path sodipodi:nodetypes="ccccc" inkscape:connector-curvature="0" id="path4845" d="m 94.99,15.72 l 11.81,10.92 c 16.5,4.11 31.9,3.98 48.6,1.16 l 13.2,-12.08 c -23.3,8.01 -53.1,6.18 -73.61,0 z" style="fill:#707070;fill-opacity:1;fill-rule:evenodd;stroke:none;stroke-width:1px;stroke-linecap:butt;stroke-linejoin:miter;stroke-opacity:1" />
        <path sodipodi:nodetypes="ccccc" inkscape:connector-curvature="0" id="path4391-7-4" d="m 158.8,24.8 c -18.8,3.85 -34.5,3.76 -54.3,0 c 3.7,22.72 4.7,47.18 0,66.65 c 8.7,7.5 44.1,7.9 54.3,0.4 c -1.8,-22.86 -4,-47.14 0,-67.05 z" style="fill:#a1a1a1;fill-opacity:1;fill-rule:evenodd;stroke:none" />
        <path style="fill:url(#linearGradient4814);fill-opacity:1;fill-rule:evenodd;stroke:none" d="m 104.6,24.59 c 18.8,3.85 34.5,3.76 54.3,0 c -3.7,22.72 -2.4,44.87 0,66.63 c -8.7,7.5 -44.1,7.9 -54.3,0.4 c 1.8,-22.84 4,-47.12 0,-67.03 z" id="path4391-7" inkscape:connector-curvature="0" sodipodi:nodetypes="ccccc" />
      </g>
    </g>
    <g transform="matrix(0.9951,0,0,1,-55.46,8.673)" id="g4890">
      <path style="color:#000000;display:inline;overflow:visible;visibility:visible;opacity:1;fill:url(#linearGradient4887);fill-opacity:1;fill-rule:nonzero;stroke:none;stroke-width:1;stroke-linecap:round;stroke-miterlimit:6.01;stroke-dasharray:none;stroke-opacity:1;marker:none;enable-background:accumulate" id="path4863" sodipodi:type="arc" sodipodi:cx="131.1" sodipodi:cy="12.12" sodipodi:rx="35.2" sodipodi:ry="5.577" sodipodi:start="0" sodipodi:end="6.154" d="m 166.3,12.12 a 35.2,5.577 0 0 1 -34.1,5.57 A 35.2,5.577 0 0 1 95.97,12.48 A 35.2,5.577 0 0 1 127.7,6.569 A 35.2,5.577 0 0 1 166,11.4" sodipodi:open="true" />
      <ellipse ry="1.482" rx="9.718" cy="11.83" cx="131.8" id="path4234" style="color:#000000;display:inline;overflow:visible;visibility:visible;opacity:1;fill:#707070;fill-opacity:1;fill-rule:nonzero;stroke:none;stroke-width:2;stroke-linecap:round;stroke-linejoin:miter;stroke-miterlimit:4;stroke-dasharray:none;stroke-dashoffset:0;stroke-opacity:1;marker:none;enable-background:accumulate" />
    </g>
    <path sodipodi:nodetypes="ccccc" inkscape:connector-curvature="0" id="path4894" d="m 38.31,117 l 9.48,-9.2 c 18.1,6.9 36.1,6.7 54.21,0.3 l 9.7,8.9 c -14.11,14.5 -60.81,11 -73.39,0 z" style="fill:url(#linearGradient4910);fill-opacity:1;fill-rule:evenodd;stroke:none;stroke-width:1px;stroke-linecap:butt;stroke-linejoin:miter;stroke-opacity:1" />
    <text id="text4169" y="97.15" x="74.67" style="font-style:normal;font-variant:normal;font-weight:normal;font-stretch:normal;line-height:0%;font-family:sans-serif;-inkscape-font-specification:'sans-serif, Normal';text-align:center;letter-spacing:0px;word-spacing:0px;writing-mode:lr-tb;text-anchor:middle;fill:#000000;fill-opacity:1;stroke:none;stroke-width:1px;stroke-linecap:butt;stroke-linejoin:miter;stroke-opacity:1" xml:space="preserve"><tspan style="font-style:normal;font-variant:normal;font-weight:normal;font-stretch:normal;font-size:62.5px;line-height:1.25;font-family:ParaAminobenzoic;-inkscape-font-specification:ParaAminobenzoic" y="97.15" x="74.67" id="tspan4171" sodipodi:role="line">E</tspan></text>
  </g>
</svg>
